<svg width="243" height="237" viewBox="0 0 243 237" fill="none" xmlns="http://www.w3.org/2000/svg">
<path d="M85.8594 60.8086C88.8054 68.9784 90.4639 77.5585 90.7758 86.2433C91.1956 95.0081 90.2075 103.787 87.8491 112.248C87.2939 114.37 86.6154 116.458 85.8172 118.502L83.2264 124.6C82.2232 126.566 81.035 128.438 79.9451 130.333C79.4358 131.303 78.8703 132.243 78.2516 133.148L76.1998 135.726C74.7891 137.443 73.5634 139.254 72.0096 140.809L67.3408 145.395C65.7629 146.904 64.05 148.266 62.2237 149.463C60.4066 150.595 58.7096 151.988 56.9301 153.181C63.4264 147.625 69.1579 141.235 73.9746 134.179C75.2285 132.489 76.3324 130.693 77.2738 128.812C78.2353 126.914 79.2114 125.174 80.1958 123.178L82.6457 117.46C83.3858 115.496 84.0184 113.493 84.5409 111.46C86.7833 103.308 87.9916 94.9095 88.1374 86.4624C88.2477 82.207 88.0944 77.9496 87.6784 73.7146C87.3558 69.3766 86.7482 65.0654 85.8594 60.8086Z" fill="#FBBFBF"/>
<path d="M118.506 45.0176C122.81 57.0534 125.29 69.6598 125.862 82.415C126.594 95.2623 125.271 108.134 121.943 120.541C120.226 126.74 117.964 132.771 115.183 138.565C112.355 144.329 108.968 149.8 105.074 154.898C97.306 165.026 87.726 173.614 76.8187 180.227C81.7958 176.364 86.4976 172.159 90.8898 167.64C95.2928 163.234 99.2902 158.439 102.834 153.313C109.93 143.067 115.226 131.675 118.493 119.626C121.727 107.535 123.271 95.0438 123.083 82.5097C122.948 69.8924 121.403 57.3228 118.476 45.0363L118.506 45.0176Z" fill="#FBBFBF"/>
<path d="M153.496 28.1826C159.325 44.482 162.684 61.5542 163.459 78.8278C164.449 96.2261 162.658 113.657 158.151 130.459C155.826 138.854 152.762 147.022 148.997 154.868C145.166 162.675 140.58 170.083 135.305 176.987C124.786 190.703 111.813 202.334 97.0417 211.289C103.782 206.058 110.149 200.362 116.097 194.242C122.06 188.276 127.473 181.783 132.272 174.84C141.882 160.966 149.054 145.538 153.479 129.22C157.858 112.846 159.95 95.9301 159.695 78.9559C159.512 61.8691 157.419 44.8468 153.455 28.208L153.496 28.1826Z" fill="#FBBFBF"/>
</svg>
